# xmcd
#
# Track frame offsets:
#	150
#	16315
#	35086
#	51269
#	69336
#	87660
#	106672
#	123316
#	142951
#	156238
#	170030
#	184835
#	200338
#	220972
#	237607
#
# Disc length: 3378 seconds
#
# Revision: 1
# Processed by: cddbd v1.5.2PL0 Copyright (c) Steve Scherf et al.
# Submitted via: audiograbber 1.83.01
#
DISCID=da0d300f
DTITLE=Various Artist - 200 Country Hits 1978-1985 Disc 14
DYEAR=1900
DGENRE=Karaoke
TTITLE0=Alabama - Fourty hour week
TTITLE1=Exile - She's a miracle
TTITLE2=Earl Thomas Conley - Love don't care ( whose heart it breaks)
TTITLE3=The Judds - Love is alive
TTITLE4=Ronnie Milsap - Lost in the fifties
TTITLE5=Marie Osmond and Dan Seals - Meet me in Montana
TTITLE6=Alabama - Can't keep a good man down
TTITLE7=Juice Newton - You make me want to make you mine
TTITLE8=George Straight - The chair
TTITLE9=Janie Frickle - She's single again
TTITLE10=George Jones - Who's gonna fill thier shoes
TTITLE11=The Judds - Have mercy
TTITLE12=John Conlee - Working man
TTITLE13=The Bellamy Brothers - Lie to you for your love
TTITLE14=Rosanne Cash - I don't know why you don't want me
EXTD=
EXTT0=
EXTT1=
EXTT2=
EXTT3=
EXTT4=
EXTT5=
EXTT6=
EXTT7=
EXTT8=
EXTT9=
EXTT10=
EXTT11=
EXTT12=
EXTT13=
EXTT14=
PLAYORDER=
